<svg id="visual" viewBox="0 0 960 300" width="960" height="300" xmlns="http://www.w3.org/2000/svg" xmlns:xlink="http://www.w3.org/1999/xlink" version="1.1"><rect x="0" y="0" width="960" height="300" fill="#ffffff"></rect><path d="M0 153L16 150.7C32 148.3 64 143.7 96 147.8C128 152 160 165 192 168.3C224 171.7 256 165.3 288 165C320 164.7 352 170.3 384 177C416 183.7 448 191.3 480 187.3C512 183.3 544 167.7 576 165.2C608 162.7 640 173.3 672 171.2C704 169 736 154 768 151C800 148 832 157 864 155.8C896 154.7 928 143.3 944 137.7L960 132L960 301L944 301C928 301 896 301 864 301C832 301 800 301 768 301C736 301 704 301 672 301C640 301 608 301 576 301C544 301 512 301 480 301C448 301 416 301 384 301C352 301 320 301 288 301C256 301 224 301 192 301C160 301 128 301 96 301C64 301 32 301 16 301L0 301Z" fill="#e0e8ef"></path><path d="M0 206L16 209C32 212 64 218 96 216.5C128 215 160 206 192 203C224 200 256 203 288 201.2C320 199.3 352 192.7 384 193.3C416 194 448 202 480 206.8C512 211.7 544 213.3 576 207.8C608 202.3 640 189.7 672 185.8C704 182 736 187 768 184.8C800 182.7 832 173.3 864 172.2C896 171 928 178 944 181.5L960 185L960 301L944 301C928 301 896 301 864 301C832 301 800 301 768 301C736 301 704 301 672 301C640 301 608 301 576 301C544 301 512 301 480 301C448 301 416 301 384 301C352 301 320 301 288 301C256 301 224 301 192 301C160 301 128 301 96 301C64 301 32 301 16 301L0 301Z" fill="#abbccc"></path><path d="M0 215L16 213.5C32 212 64 209 96 214.8C128 220.7 160 235.3 192 242.5C224 249.7 256 249.3 288 246.2C320 243 352 237 384 229.3C416 221.7 448 212.3 480 214.5C512 216.7 544 230.3 576 235.3C608 240.3 640 236.7 672 235.8C704 235 736 237 768 239.3C800 241.7 832 244.3 864 238.7C896 233 928 219 944 212L960 205L960 301L944 301C928 301 896 301 864 301C832 301 800 301 768 301C736 301 704 301 672 301C640 301 608 301 576 301C544 301 512 301 480 301C448 301 416 301 384 301C352 301 320 301 288 301C256 301 224 301 192 301C160 301 128 301 96 301C64 301 32 301 16 301L0 301Z" fill="#7792aa"></path><path d="M0 238L16 243.5C32 249 64 260 96 263.2C128 266.3 160 261.7 192 258.7C224 255.7 256 254.3 288 254.5C320 254.7 352 256.3 384 260C416 263.7 448 269.3 480 270.5C512 271.7 544 268.3 576 262.5C608 256.7 640 248.3 672 248C704 247.7 736 255.3 768 255.8C800 256.3 832 249.7 864 247.7C896 245.7 928 248.3 944 249.7L960 251L960 301L944 301C928 301 896 301 864 301C832 301 800 301 768 301C736 301 704 301 672 301C640 301 608 301 576 301C544 301 512 301 480 301C448 301 416 301 384 301C352 301 320 301 288 301C256 301 224 301 192 301C160 301 128 301 96 301C64 301 32 301 16 301L0 301Z" fill="#436a8a"></path></svg>