<svg id="visual" viewBox="0 0 960 300" width="960" height="300" xmlns="http://www.w3.org/2000/svg" xmlns:xlink="http://www.w3.org/1999/xlink" version="1.1"><rect x="0" y="0" width="960" height="300" fill="#FFFFFF"></rect><path d="M0 151L11.5 144.7C23 138.3 46 125.7 68.8 125.3C91.7 125 114.3 137 137.2 144.7C160 152.3 183 155.7 205.8 154.2C228.7 152.7 251.3 146.3 274.2 141.2C297 136 320 132 342.8 132.8C365.7 133.7 388.3 139.3 411.2 142.5C434 145.7 457 146.3 480 149.2C503 152 526 157 548.8 154.2C571.7 151.3 594.3 140.7 617.2 138.7C640 136.7 663 143.3 685.8 147.3C708.7 151.3 731.3 152.7 754.2 153C777 153.3 800 152.7 822.8 149.2C845.7 145.7 868.3 139.3 891.2 134.2C914 129 937 125 948.5 123L960 121L960 301L948.5 301C937 301 914 301 891.2 301C868.3 301 845.7 301 822.8 301C800 301 777 301 754.2 301C731.3 301 708.7 301 685.8 301C663 301 640 301 617.2 301C594.3 301 571.7 301 548.8 301C526 301 503 301 480 301C457 301 434 301 411.2 301C388.3 301 365.7 301 342.8 301C320 301 297 301 274.2 301C251.3 301 228.7 301 205.8 301C183 301 160 301 137.2 301C114.3 301 91.7 301 68.8 301C46 301 23 301 11.5 301L0 301Z" fill="#d5e6ff"></path><path d="M0 182L11.5 178.3C23 174.7 46 167.3 68.8 161.3C91.7 155.3 114.3 150.7 137.2 155C160 159.3 183 172.7 205.8 179.3C228.7 186 251.3 186 274.2 179.3C297 172.7 320 159.3 342.8 152.7C365.7 146 388.3 146 411.2 150.2C434 154.3 457 162.7 480 164.2C503 165.7 526 160.3 548.8 164.2C571.7 168 594.3 181 617.2 183.8C640 186.7 663 179.3 685.8 179.3C708.7 179.3 731.3 186.7 754.2 185.5C777 184.3 800 174.7 822.8 168C845.7 161.3 868.3 157.7 891.2 157C914 156.3 937 158.7 948.5 159.8L960 161L960 301L948.5 301C937 301 914 301 891.2 301C868.3 301 845.7 301 822.8 301C800 301 777 301 754.2 301C731.3 301 708.7 301 685.8 301C663 301 640 301 617.2 301C594.3 301 571.7 301 548.8 301C526 301 503 301 480 301C457 301 434 301 411.2 301C388.3 301 365.7 301 342.8 301C320 301 297 301 274.2 301C251.3 301 228.7 301 205.8 301C183 301 160 301 137.2 301C114.3 301 91.7 301 68.8 301C46 301 23 301 11.5 301L0 301Z" fill="#aec3e1"></path><path d="M0 182L11.5 187.2C23 192.3 46 202.7 68.8 203C91.7 203.3 114.3 193.7 137.2 195.5C160 197.3 183 210.7 205.8 213.7C228.7 216.7 251.3 209.3 274.2 208.7C297 208 320 214 342.8 213.3C365.7 212.7 388.3 205.3 411.2 198.3C434 191.3 457 184.7 480 183.2C503 181.7 526 185.3 548.8 193.3C571.7 201.3 594.3 213.7 617.2 214.3C640 215 663 204 685.8 203.2C708.7 202.3 731.3 211.7 754.2 213C777 214.3 800 207.7 822.8 201.7C845.7 195.7 868.3 190.3 891.2 192.7C914 195 937 205 948.5 210L960 215L960 301L948.5 301C937 301 914 301 891.2 301C868.3 301 845.7 301 822.8 301C800 301 777 301 754.2 301C731.3 301 708.7 301 685.8 301C663 301 640 301 617.2 301C594.3 301 571.7 301 548.8 301C526 301 503 301 480 301C457 301 434 301 411.2 301C388.3 301 365.7 301 342.8 301C320 301 297 301 274.2 301C251.3 301 228.7 301 205.8 301C183 301 160 301 137.2 301C114.3 301 91.7 301 68.8 301C46 301 23 301 11.5 301L0 301Z" fill="#87a2c3"></path><path d="M0 249L11.5 246C23 243 46 237 68.8 233.7C91.7 230.3 114.3 229.7 137.2 230.3C160 231 183 233 205.8 236C228.7 239 251.3 243 274.2 240.8C297 238.7 320 230.3 342.8 230.8C365.7 231.3 388.3 240.7 411.2 241C434 241.3 457 232.7 480 226.5C503 220.3 526 216.7 548.8 216.2C571.7 215.7 594.3 218.3 617.2 218.3C640 218.3 663 215.7 685.8 214.7C708.7 213.7 731.3 214.3 754.2 215.2C777 216 800 217 822.8 221.7C845.7 226.3 868.3 234.7 891.2 236.5C914 238.3 937 233.7 948.5 231.3L960 229L960 301L948.5 301C937 301 914 301 891.2 301C868.3 301 845.7 301 822.8 301C800 301 777 301 754.2 301C731.3 301 708.7 301 685.8 301C663 301 640 301 617.2 301C594.3 301 571.7 301 548.8 301C526 301 503 301 480 301C457 301 434 301 411.2 301C388.3 301 365.7 301 342.8 301C320 301 297 301 274.2 301C251.3 301 228.7 301 205.8 301C183 301 160 301 137.2 301C114.3 301 91.7 301 68.8 301C46 301 23 301 11.5 301L0 301Z" fill="#6082a6"></path><path d="M0 272L11.5 271.8C23 271.7 46 271.3 68.8 268.7C91.7 266 114.3 261 137.2 257.7C160 254.3 183 252.7 205.8 256C228.7 259.3 251.3 267.7 274.2 269C297 270.3 320 264.7 342.8 261.7C365.7 258.7 388.3 258.3 411.2 261C434 263.7 457 269.3 480 270.7C503 272 526 269 548.8 268.2C571.7 267.3 594.3 268.7 617.2 265.5C640 262.3 663 254.7 685.8 255.5C708.7 256.3 731.3 265.7 754.2 271.2C777 276.7 800 278.3 822.8 276.7C845.7 275 868.3 270 891.2 264.5C914 259 937 253 948.5 250L960 247L960 301L948.5 301C937 301 914 301 891.2 301C868.3 301 845.7 301 822.8 301C800 301 777 301 754.2 301C731.3 301 708.7 301 685.8 301C663 301 640 301 617.2 301C594.3 301 571.7 301 548.8 301C526 301 503 301 480 301C457 301 434 301 411.2 301C388.3 301 365.7 301 342.8 301C320 301 297 301 274.2 301C251.3 301 228.7 301 205.8 301C183 301 160 301 137.2 301C114.3 301 91.7 301 68.8 301C46 301 23 301 11.5 301L0 301Z" fill="#376389"></path></svg>