<svg id="visual" viewBox="0 0 960 300" width="960" height="300" xmlns="http://www.w3.org/2000/svg" xmlns:xlink="http://www.w3.org/1999/xlink" version="1.1"><rect x="0" y="0" width="960" height="300" fill="#376389"></rect><path d="M0 91L20 96.3C40 101.7 80 112.3 120 110.5C160 108.7 200 94.3 240 91.5C280 88.7 320 97.3 360 96.2C400 95 440 84 480 84.2C520 84.3 560 95.7 600 97.5C640 99.3 680 91.7 720 90.7C760 89.7 800 95.3 840 95C880 94.7 920 88.3 940 85.2L960 82L960 301L940 301C920 301 880 301 840 301C800 301 760 301 720 301C680 301 640 301 600 301C560 301 520 301 480 301C440 301 400 301 360 301C320 301 280 301 240 301C200 301 160 301 120 301C80 301 40 301 20 301L0 301Z" fill="#376389"></path><path d="M0 134L20 135.5C40 137 80 140 120 145.7C160 151.3 200 159.7 240 166.3C280 173 320 178 360 170.3C400 162.7 440 142.3 480 137.2C520 132 560 142 600 143.2C640 144.3 680 136.7 720 134C760 131.3 800 133.7 840 136.3C880 139 920 142 940 143.5L960 145L960 301L940 301C920 301 880 301 840 301C800 301 760 301 720 301C680 301 640 301 600 301C560 301 520 301 480 301C440 301 400 301 360 301C320 301 280 301 240 301C200 301 160 301 120 301C80 301 40 301 20 301L0 301Z" fill="#6180a0"></path><path d="M0 146L20 149.8C40 153.7 80 161.3 120 170C160 178.7 200 188.3 240 194.3C280 200.3 320 202.7 360 198.5C400 194.3 440 183.7 480 175.2C520 166.7 560 160.3 600 161.5C640 162.7 680 171.3 720 170.3C760 169.3 800 158.7 840 161C880 163.3 920 178.7 940 186.3L960 194L960 301L940 301C920 301 880 301 840 301C800 301 760 301 720 301C680 301 640 301 600 301C560 301 520 301 480 301C440 301 400 301 360 301C320 301 280 301 240 301C200 301 160 301 120 301C80 301 40 301 20 301L0 301Z" fill="#889eb7"></path><path d="M0 201L20 202.3C40 203.7 80 206.3 120 205C160 203.7 200 198.3 240 193.3C280 188.3 320 183.7 360 186.2C400 188.7 440 198.3 480 200.3C520 202.3 560 196.7 600 191.7C640 186.7 680 182.3 720 186.7C760 191 800 204 840 207.5C880 211 920 205 940 202L960 199L960 301L940 301C920 301 880 301 840 301C800 301 760 301 720 301C680 301 640 301 600 301C560 301 520 301 480 301C440 301 400 301 360 301C320 301 280 301 240 301C200 301 160 301 120 301C80 301 40 301 20 301L0 301Z" fill="#b0becf"></path><path d="M0 243L20 241C40 239 80 235 120 230.2C160 225.3 200 219.7 240 219C280 218.3 320 222.7 360 221.7C400 220.7 440 214.3 480 213.5C520 212.7 560 217.3 600 223.3C640 229.3 680 236.7 720 236.7C760 236.7 800 229.3 840 228.8C880 228.3 920 234.7 940 237.8L960 241L960 301L940 301C920 301 880 301 840 301C800 301 760 301 720 301C680 301 640 301 600 301C560 301 520 301 480 301C440 301 400 301 360 301C320 301 280 301 240 301C200 301 160 301 120 301C80 301 40 301 20 301L0 301Z" fill="#d7dee7"></path><path d="M0 245L20 249.3C40 253.7 80 262.3 120 267C160 271.7 200 272.3 240 273.5C280 274.7 320 276.3 360 276.8C400 277.3 440 276.7 480 274.2C520 271.7 560 267.3 600 265.3C640 263.3 680 263.7 720 264.8C760 266 800 268 840 270.3C880 272.7 920 275.3 940 276.7L960 278L960 301L940 301C920 301 880 301 840 301C800 301 760 301 720 301C680 301 640 301 600 301C560 301 520 301 480 301C440 301 400 301 360 301C320 301 280 301 240 301C200 301 160 301 120 301C80 301 40 301 20 301L0 301Z" fill="#ffffff"></path></svg>